<svg width="102" height="63" viewBox="0 0 102 63" fill="none" xmlns="http://www.w3.org/2000/svg">
<path d="M66.3422 16.3149V15.3H67.9917V10.2H66.3422V6.8C66.3422 3.0498 63.3828 0 59.7438 0H43.2479C39.6089 0 36.6496 3.0498 36.6496 6.8V10.2H35V15.3H36.6496V16.3149C35.5823 17.5558 34.9957 19.1583 35.0016 20.8165L35.0082 27.2051C35.0099 28.4512 35.6747 29.5324 36.6496 30.1223V32.3C36.6496 32.7509 36.8234 33.1833 37.1327 33.5021C37.4421 33.8209 37.8617 34 38.2992 34H39.9488C40.3863 34 40.8058 33.8209 41.1152 33.5021C41.4246 33.1833 41.5983 32.7509 41.5983 32.3V30.6H61.3934V32.3C61.3934 32.7509 61.5672 33.1833 61.8766 33.5021C62.1859 33.8209 62.6055 34 63.043 34H64.6926C65.1301 34 65.5497 33.8209 65.859 33.5021C66.1684 33.1833 66.3422 32.7509 66.3422 32.3V30.1342C66.5951 29.9887 66.8286 29.8098 67.0366 29.6021C67.6585 28.9595 68.0016 28.1044 68 27.1966L67.9934 20.8063C67.9968 19.151 67.409 17.5523 66.3422 16.3149ZM44.8975 3.4H58.0942V6.8H44.8975V3.4ZM42.4231 25.5C41.7667 25.4998 41.1372 25.2308 40.6732 24.7523C40.2091 24.2737 39.9485 23.6248 39.9488 22.9483C39.949 22.2718 40.21 21.623 40.6743 21.1448C41.1387 20.6666 41.7683 20.3981 42.4248 20.3983C43.0813 20.3985 43.7107 20.6675 44.1748 21.146C44.6388 21.6246 44.8994 22.2735 44.8992 22.95C44.899 23.6265 44.638 24.2753 44.1736 24.7535C43.7093 25.2317 43.0796 25.5002 42.4231 25.5ZM49.8463 17H39.9488V10.2H49.8463V17ZM60.5686 25.5C59.9121 25.4998 59.2826 25.2308 58.8186 24.7523C58.3546 24.2737 58.094 23.6248 58.0942 22.9483C58.0944 22.2718 58.3554 21.623 58.8198 21.1448C59.2841 20.6666 59.9138 20.3981 60.5703 20.3983C61.2267 20.3985 61.8562 20.6675 62.3202 21.146C62.7843 21.6246 63.0449 22.2735 63.0446 22.95C63.0444 23.6265 62.7834 24.2753 62.3191 24.7535C61.8547 25.2317 61.2251 25.5002 60.5686 25.5ZM63.043 17H53.1455V10.2H63.043V17Z" fill="white"/>
<path d="M11.686 62.2845C8.74567 62.5926 6.04406 62.7467 3.5812 62.7467C2.34977 62.7467 1.44505 62.4632 0.867028 61.8963C0.289009 61.3294 0 60.4421 0 59.2344V53.319C0 52.025 0.295292 51.0884 0.885876 50.5092C1.48903 49.9176 2.4503 49.6218 3.76969 49.6218H10.5551V52.2098H4.52362C3.76969 52.2098 3.39272 52.5795 3.39272 53.319V59.2344C3.39272 59.5178 3.47439 59.7458 3.63775 59.9184C3.81367 60.0786 4.04613 60.1587 4.33514 60.1587C5.78018 60.1587 7.09957 60.1279 8.29331 60.0662V57.3858H5.84301V55.1675H11.686V62.2845Z" fill="white"/>
<path d="M23.5642 59.789C23.5642 60.7132 23.2941 61.4403 22.7537 61.9703C22.226 62.4879 21.4909 62.7467 20.5485 62.7467H16.2133C15.2709 62.7467 14.5295 62.4879 13.9892 61.9703C13.4615 61.4403 13.1976 60.7132 13.1976 59.789V55.5373C13.1976 54.613 13.4615 53.892 13.9892 53.3744C14.5295 52.8445 15.2709 52.5795 16.2133 52.5795H20.5485C21.4909 52.5795 22.226 52.8445 22.7537 53.3744C23.2941 53.892 23.5642 54.613 23.5642 55.5373V59.789ZM20.2657 55.8145C20.2657 55.3216 20.0144 55.0751 19.5118 55.0751H17.25C16.7474 55.0751 16.4961 55.3216 16.4961 55.8145V59.5117C16.4961 60.0046 16.7474 60.2511 17.25 60.2511H19.5118C20.0144 60.2511 20.2657 60.0046 20.2657 59.5117V55.8145Z" fill="white"/>
<path d="M42.4068 62.2845C39.4664 62.5926 36.7648 62.7467 34.3019 62.7467C33.0705 62.7467 32.1658 62.4632 31.5878 61.8963C31.0097 61.3294 30.7207 60.4421 30.7207 59.2344V53.319C30.7207 52.025 31.016 51.0884 31.6066 50.5092C32.2098 49.9176 33.171 49.6218 34.4904 49.6218H41.2758V52.2098H35.2444C34.4904 52.2098 34.1134 52.5795 34.1134 53.319V59.2344C34.1134 59.5178 34.1951 59.7458 34.3585 59.9184C34.5344 60.0786 34.7669 60.1587 35.0559 60.1587C36.5009 60.1587 37.8203 60.1279 39.014 60.0662V57.3858H36.5637V55.1675H42.4068V62.2845Z" fill="white"/>
<path d="M54.2849 59.789C54.2849 60.7132 54.0148 61.4403 53.4745 61.9703C52.9467 62.4879 52.2116 62.7467 51.2692 62.7467H46.9341C45.9916 62.7467 45.2503 62.4879 44.7099 61.9703C44.1822 61.4403 43.9183 60.7132 43.9183 59.789V55.5373C43.9183 54.613 44.1822 53.892 44.7099 53.3744C45.2503 52.8445 45.9916 52.5795 46.9341 52.5795H51.2692C52.2116 52.5795 52.9467 52.8445 53.4745 53.3744C54.0148 53.892 54.2849 54.613 54.2849 55.5373V59.789ZM50.9865 55.8145C50.9865 55.3216 50.7352 55.0751 50.2325 55.0751H47.9707C47.4681 55.0751 47.2168 55.3216 47.2168 55.8145V59.5117C47.2168 60.0046 47.4681 60.2511 47.9707 60.2511H50.2325C50.7352 60.2511 50.9865 60.0046 50.9865 59.5117V55.8145Z" fill="white"/>
<path d="M61.8184 49.6218H69.3578C70.5892 49.6218 71.4939 49.8991 72.072 50.4537C72.65 50.9959 72.939 51.8278 72.939 52.9493C72.939 53.6887 72.7756 54.2926 72.4489 54.7609C72.1222 55.2168 71.7201 55.5373 71.2426 55.7221C72.2605 55.9932 72.9516 56.6587 73.316 57.7186C73.4416 58.1006 73.5044 58.5443 73.5044 59.0495C73.5044 60.2573 73.2154 61.1446 72.6374 61.7115C72.0594 62.2784 71.1547 62.5618 69.9232 62.5618H61.8184V49.6218ZM70.1117 58.495C70.1117 57.7555 69.7348 57.3858 68.9808 57.3858H65.2111V59.9738H68.9808C69.7348 59.9738 70.1117 59.6041 70.1117 58.8647V58.495ZM69.5463 53.319C69.5463 52.5795 69.1693 52.2098 68.4154 52.2098H65.2111V54.7978H68.4154C69.1693 54.7978 69.5463 54.4281 69.5463 53.6887V53.319Z" fill="white"/>
<path d="M79.6294 60.0662C80.2954 60.0662 81.0494 59.943 81.8913 59.6965V52.7644H85.1897V62.5618H82.2682L82.0798 61.6375C81.4892 62.0196 80.8797 62.303 80.2514 62.4879C79.6357 62.6604 79.1143 62.7467 78.687 62.7467H77.8388C76.9844 62.7467 76.2996 62.494 75.7844 61.9888C75.2692 61.4835 75.0116 60.8118 75.0116 59.9738V52.7644H78.3101V59.4192C78.3101 59.6041 78.3729 59.7582 78.4986 59.8814C78.6242 60.0046 78.7813 60.0662 78.9698 60.0662H79.6294Z" fill="white"/>
<path d="M86.691 59.9738C89.2418 60.1587 91.2523 60.2511 92.7225 60.2511C92.911 60.2511 93.068 60.1895 93.1937 60.0662C93.3193 59.943 93.3822 59.789 93.3822 59.6041V58.9571H89.3298C88.4753 58.9571 87.7905 58.7045 87.2753 58.1992C86.7601 57.6939 86.5025 57.0223 86.5025 56.1843V55.5373C86.5025 54.6992 86.7601 54.0276 87.2753 53.5223C87.7905 53.017 88.4753 52.7644 89.3298 52.7644H95.7382V55.1675H90.4607C90.2722 55.1675 90.1151 55.2292 89.9895 55.3524C89.8638 55.4756 89.801 55.6297 89.801 55.8145C89.801 55.9994 89.8638 56.1534 89.9895 56.2767C90.1151 56.3999 90.2722 56.4615 90.4607 56.4615H93.8534C94.7078 56.4615 95.3927 56.7142 95.9079 57.2195C96.4231 57.7247 96.6806 58.3964 96.6806 59.2344V59.9738C96.6806 60.8118 96.4231 61.4835 95.9079 61.9888C95.3927 62.494 94.7078 62.7467 93.8534 62.7467C91.6293 62.7467 89.2418 62.6234 86.691 62.377V59.9738Z" fill="white"/>
<path d="M98.0015 59.789H101.394V62.5618H98.0015V59.789ZM98.3785 58.6798L98.0015 54.7978V49.6218H101.394V54.7978L101.017 58.6798H98.3785Z" fill="white"/>
</svg>
