<svg width="34" height="34" viewBox="0 0 34 34" fill="none" xmlns="http://www.w3.org/2000/svg">
<path d="M17.0002 24.0833L18.4168 21.25V13.9655C20.8549 13.3322 22.6668 11.1321 22.6668 8.49998C22.6668 5.37481 20.1253 2.83331 17.0002 2.83331C13.875 2.83331 11.3335 5.37481 11.3335 8.49998C11.3335 11.1321 13.1454 13.3322 15.5835 13.9655V21.25L17.0002 24.0833ZM14.1668 8.49998C14.1668 6.9374 15.4376 5.66665 17.0002 5.66665C18.5627 5.66665 19.8335 6.9374 19.8335 8.49998C19.8335 10.0626 18.5627 11.3333 17.0002 11.3333C15.4376 11.3333 14.1668 10.0626 14.1668 8.49998Z" fill="white"/>
<path d="M23.0451 14.9642L22.29 17.6956C25.9606 18.7099 28.3335 20.6607 28.3335 22.6667C28.3335 25.347 23.6797 28.3333 17.0002 28.3333C10.3206 28.3333 5.66683 25.347 5.66683 22.6667C5.66683 20.6607 8.03975 18.7099 11.7117 17.6942L10.9567 14.9628C5.94591 16.3483 2.8335 19.2992 2.8335 22.6667C2.8335 27.4323 9.05691 31.1667 17.0002 31.1667C24.9434 31.1667 31.1668 27.4323 31.1668 22.6667C31.1668 19.2992 28.0544 16.3483 23.0451 14.9642Z" fill="white"/>
</svg>
