<svg width="24" height="27" viewBox="0 0 24 27" fill="none" xmlns="http://www.w3.org/2000/svg">
<path d="M8.05606 23.3373H15.9441C15.7864 24.2693 15.3039 25.1154 14.5819 25.7255C13.86 26.3356 12.9453 26.6703 12.0001 26.6703C11.0548 26.6703 10.1401 26.3356 9.41819 25.7255C8.69624 25.1154 8.21367 24.2693 8.05606 23.3373ZM12.0001 0.670654C14.6522 0.670654 17.1958 1.72422 19.0711 3.59959C20.9465 5.47495 22.0001 8.01849 22.0001 10.6707V16.004L23.8907 20.2173C23.9767 20.41 24.0131 20.6211 23.9968 20.8315C23.9804 21.0419 23.9118 21.2448 23.7971 21.4219C23.6824 21.599 23.5252 21.7447 23.3399 21.8456C23.1546 21.9466 22.9471 21.9996 22.7361 22H1.26939C1.0581 22 0.850175 21.9471 0.664547 21.8461C0.47892 21.7452 0.321489 21.5994 0.206589 21.4221C0.0916896 21.2448 0.0229722 21.0416 0.00669446 20.8309C-0.00958328 20.6202 0.0270958 20.4088 0.113392 20.216L2.00006 16.0027V10.6533L2.00673 10.32C2.09793 7.73046 3.19072 5.27743 5.05486 3.47771C6.91899 1.67799 9.40892 0.672109 12.0001 0.671988V0.670654Z" fill="white"/>
</svg>
