<svg width="27" height="28" viewBox="0 0 27 28" fill="none" xmlns="http://www.w3.org/2000/svg">
<path d="M11.8815 23.1778C14.3878 23.1773 16.8218 22.3383 18.7961 20.7944L25.0033 27.0015L26.9998 25.005L20.7927 18.7978C22.3374 16.8233 23.1769 14.3887 23.1775 11.8818C23.1775 5.65344 18.1098 0.585754 11.8815 0.585754C5.65314 0.585754 0.585449 5.65344 0.585449 11.8818C0.585449 18.1102 5.65314 23.1778 11.8815 23.1778ZM11.8815 3.40976C16.5538 3.40976 20.3535 7.20947 20.3535 11.8818C20.3535 16.5541 16.5538 20.3538 11.8815 20.3538C7.20917 20.3538 3.40946 16.5541 3.40946 11.8818C3.40946 7.20947 7.20917 3.40976 11.8815 3.40976Z" fill="white"/>
<path d="M13.8752 9.88533C14.4103 10.4219 14.7055 11.1307 14.7055 11.8819H17.5295C17.5307 11.1398 17.3849 10.4048 17.1003 9.71939C16.8158 9.034 16.3982 8.41179 15.8718 7.88875C13.734 5.7538 10.0275 5.7538 7.89111 7.88875L9.88487 9.88815C10.958 8.81785 12.8077 8.82067 13.8752 9.88533Z" fill="white"/>
</svg>
